<?xml version="1.0" encoding="utf-8"?>
<!-- Generator: Adobe Illustrator 28.3.0, SVG Export Plug-In . SVG Version: 6.00 Build 0)  -->
<svg version="1.1" id="Layer_1" xmlns="http://www.w3.org/2000/svg" xmlns:xlink="http://www.w3.org/1999/xlink" x="0px" y="0px"
	 viewBox="0 0 1280 1280" style="enable-background:new 0 0 1280 1280;" xml:space="preserve">
<style type="text/css">
	.st0{fill:#FFFFFF;}
	.st1{font-family:'BodoniMTBlack';}
	.st2{font-size:199.9535px;}
	.st3{fill:none;}
</style>
<g transform="translate(0.000000,1280.000000) scale(0.100000,-0.100000)">
	<path d="M6455,11956c-66-57-171-156-234-219l-113-116l-68,58c-119,103-389,300-435,317c-8,4-27-9-47-32c-79-89-186-228-266-346
		c-81-121-87-127-106-114c-95,61-384,208-503,255l-52,20l-37-62c-62-105-170-317-210-412c-21-49-39-92-40-93c-2-2-74,21-161,51
		c-130,45-422,127-453,127c-13,0-109-285-151-450c-22-85-42-156-44-158s-60,6-129,17c-128,22-386,50-463,51c-31,0-43-4-47-17
		c-20-65-50-291-72-554l-5-66l-217-6c-119-3-263-11-320-17l-102-13v-161c0-144,5-211,26-422l6-61l-103-18c-127-22-269-55-412-97
		l-109-31l7-46c14-99,56-292,91-416c20-71,38-139,41-151c4-17-3-23-39-33c-159-47-538-219-538-245c0-38,119-334,196-488
		c24-48,44-90,44-92c0-3-44-31-97-62c-111-65-279-176-368-242c-33-25-62-47-64-48c-12-10,194-342,296-476l51-67l-116-100
		c-65-55-171-154-236-220l-119-120l73-88c41-48,140-155,221-237l147-149l-57-67c-103-119-300-389-317-435c-4-8,9-27,32-47
		c89-79,228-186,346-266c121-81,127-87,114-106c-61-95-208-384-255-503l-20-52l62-37c105-62,317-170,412-210c50-21,92-39,93-40
		c2-2-21-74-51-161c-45-130-127-422-127-453c0-13,285-109,450-151c85-22,156-42,158-44c2-1-6-59-18-128c-21-128-49-389-50-464
		c0-31,4-43,18-47c64-20,282-48,558-72l61-5l6-217c3-119,11-263,17-320l13-102h156c142,1,232,6,422,26l66,6l18-103
		c22-127,55-269,97-412l31-109l46,7c99,14,292,56,416,91c72,20,139,38,151,41c17,4,23-3,33-39c47-159,219-538,245-538
		c38,0,334,119,488,196c48,24,90,44,92,44c3,0,31-44,62-98c65-110,176-278,242-367c25-33,47-62,48-64c10-12,342,194,476,296l67,51
		l100-116c55-65,154-171,220-236l120-119l88,73c48,41,155,140,237,221l149,147l67-57c119-103,389-300,435-317c8-4,27,9,47,32
		c79,89,186,228,266,346c81,121,87,127,106,114c95-61,384-208,503-255l52-20l37,62c62,105,170,317,210,412c21,50,39,92,40,93
		c2,2,74-21,162-51c157-55,449-134,458-124c14,13,111,312,145,447c22,85,42,156,44,158s60-6,129-17c128-22,386-50,463-51
		c31,0,43,4,47,18c20,64,50,290,72,553l5,66l217,6c119,3,263,11,320,17l102,13v161c0,144-5,211-26,422l-6,61l103,18
		c127,22,269,55,412,97l109,31l-7,46c-14,99-56,292-91,416c-20,72-38,139-41,151c-4,17,3,23,39,33c159,47,538,219,538,245
		c0,38-119,334-196,488c-24,48-44,90-44,92c0,3,44,31,98,62c110,65,278,176,367,242c33,25,62,47,64,48c12,10-194,342-296,476l-51,67
		l116,100c65,55,171,154,236,220l119,120l-73,88c-41,48-140,155-221,237l-147,149l57,67c103,119,300,389,317,435c4,8-9,27-32,47
		c-89,79-228,186-346,266c-121,81-127,87-114,106c61,95,208,384,255,503l20,52l-62,37c-105,62-317,170-412,210c-49,21-92,39-93,40
		c-2,2,21,74,51,161c45,130,127,422,127,453c0,13-285,109-450,151c-85,22-156,42-158,44c-2,1,6,59,18,128c21,128,49,389,50,464
		c0,31-4,43-17,47c-65,20-283,48-559,72l-61,5l-6,217c-3,119-11,263-17,320l-13,102h-161c-144,0-211-5-422-26l-61-6l-18,103
		c-22,127-55,269-97,412l-31,109l-46-7c-99-14-292-56-416-91c-71-20-139-38-151-41c-17-4-23,3-33,39c-47,159-219,538-245,538
		c-38,0-334-119-490-197c-49-24-92-41-96-36c-4,4-42,67-85,138c-64,106-174,269-250,369c-13,18-17,17-92-24c-95-52-304-188-395-258
		l-67-51l-72,87c-71,85-358,382-369,382C6577,12060,6521,12013,6455,11956z"/>
</g>
<text transform="matrix(0.8965 0 0 1 203.3647 698.5217)" class="st0 st1 st2">WINNER</text>
<rect x="1250" y="521" class="st3" width="6" height="1"/>
<text transform="matrix(1 0 0 1 608.6152 -50.7864)" style="font-family:'MyriadPro-Regular'; font-size:12px;">Lorem ipsum</text>
</svg>
